Coordinates
version=1
nRows=8
nColumns=28
inDegrees=yes

Units are S.I. units (second, meters, Newtons, ...)
Angles are in degrees.

endheader
time	pelvis_tilt	pelvis_list	pelvis_rotation	pelvis_tx	pelvis_ty	pelvis_tz	hip_flexion_r	hip_adduction_r	hip_rotation_r	knee_angle_r	ankle_angle_r	subtalar_angle_r	mtp_angle_r	hip_flexion_l	hip_adduction_l	hip_rotation_l	knee_angle_l	socket_flexion	socket_adduction	socket_rotation	socket_tx	socket_ty	socket_tz	foot_flex	lumbar_extension	lumbar_bending	lumbar_rotation
      0.95000000	      2.61712029	      0.27596404	     -2.11144815	      0.41734969	      1.03591757	      0.32326458	      3.09041731	      2.26159479	     -7.07591631	    -20.41574102	     13.02380028	      1.44539321	     11.99345618	     14.17125923	     -3.98332515	     -3.30003224	    -65.52399794	     -7.39093109	      0.00000000	      0.00000000	      0.00000000	      0.03718897	      0.00000000	      1.13891601	    -10.19485019	      0.20369417	      3.91405151
      0.95416667	      2.59806611	      0.38139564	     -2.31468862	      0.42206234	      1.03669976	      0.32376452	      2.65707604	      2.13744972	     -7.05416996	    -20.07692125	     12.97180274	      1.62211923	     12.01483641	     14.79827593	     -3.86313209	     -3.25730205	    -65.21293875	     -7.46436374	      0.00000000	      0.00000000	      0.00000000	      0.03738855	      0.00000000	      1.14570975	    -10.23632923	      0.04709106	      3.94891681
      0.95833333	      2.57390767	      0.47935100	     -2.52500320	      0.42670528	      1.03746499	      0.32418885	      2.24270319	      2.01310075	     -7.02712370	    -19.75013824	     12.89141135	      1.83065894	     12.03276605	     15.42552032	     -3.73282854	     -3.18268857	    -64.85186085	     -7.51211493	      0.00000000	      0.00000000	      0.00000000	      0.03766248	      0.00000000	      1.15036389	    -10.27042488	     -0.07894323	      4.03592094
      0.96250000	      2.52228511	      0.58526889	     -2.71012377	      0.43147198	      1.03813135	      0.32464485	      1.82294682	      1.88834829	     -6.98840088	    -19.36906807	     12.77056725	      2.11691902	     12.06112149	     16.02969815	     -3.58500874	     -3.07531505	    -64.40476618	     -7.56386510	      0.00000000	      0.00000000	      0.00000000	      0.03761947	      0.00000000	      1.15570862	    -10.26043398	     -0.25646951	      4.18160804
      0.96666667	      2.47994635	      0.66821150	     -2.91397861	      0.43612393	      1.03875511	      0.32502248	      1.43746932	      1.76908418	     -6.97960959	    -19.06386617	     12.68335530	      2.36191297	     12.09275276	     16.61552923	     -3.46528033	     -2.98527339	    -63.91584499	     -7.59271797	      0.00000000	      0.00000000	      0.00000000	      0.03760098	      0.00000000	      1.16283949	    -10.28313609	     -0.36513678	      4.32316214
      0.97083333	      2.41038178	      0.78452872	     -3.16145642	      0.44111943	      1.03936324	      0.32553223	      1.06907511	      1.59840674	     -7.05438669	    -18.75064864	     12.46541498	      2.89308265	     12.25069619	     17.01194189	     -3.29716187	     -2.89906726	    -62.99925484	     -7.44100275	      0.00000000	      0.00000000	      0.00000000	      0.03658569	      0.00000000	      1.18328917	    -10.20721350	     -0.57719213	      4.67431865
      0.97500000	      2.39291390	      0.87045500	     -3.36674929	      0.44567367	      1.03992205	      0.32595014	      0.67165148	      1.48396998	     -6.99478213	    -18.46541444	     12.49172015	      3.11064878	     12.31976639	     17.56535162	     -3.16788965	     -2.77603678	    -62.47518578	     -7.49266473	      0.00000000	      0.00000000	      0.00000000	      0.03661925	      0.00000000	      1.17280671	    -10.26817304	     -0.70647814	      4.77146249
      0.97916667	      2.40612446	      0.86377876	     -3.62039098	      0.44994206	      1.04033821	      0.32641004	      0.38936688	      1.43795931	     -7.04907901	    -18.45716113	     12.49122079	      3.14063024	     12.32527454	     18.11744757	     -3.16788689	     -2.70030738	    -62.04646069	     -7.61957729	      0.00000000	      0.00000000	      0.00000000	      0.03665755	      0.00000000	      1.20984413	    -10.42056296	     -0.71866809	      4.78875841
